Coordinates
version=1
nRows=32
nColumns=12
inDegrees=yes

Units are S.I. units (second, meters, Newtons, ...)
Angles are in degrees

endheader
time	SC_y	SC_z	SC_x	AC_y	AC_z	AC_x	GH_y	GH_z	GH_yy	EL_x	PS_y
       0.0              -55.11         0.1857          70.21          47.47          9.976          2.046          9.723          40.28           46.5          124.6          72.57
   0.04929              -55.11          0.189          70.21          47.47          9.976          2.044          9.701          40.27          46.49          124.6          72.57
   0.09857               -55.1         0.1925          70.21          47.47          9.975          2.041          9.678          40.27          46.48          124.6          72.58
    0.1479               -55.1         0.1963           70.2          47.47          9.974          2.038          9.653          40.26          46.47          124.6          72.59
    0.1971              -55.09         0.2002           70.2          47.47          9.973          2.035          9.627          40.25          46.45          124.6          72.59
    0.2464              -55.08         0.2044           70.2          47.48          9.972          2.032          9.599          40.24          46.44          124.6           72.6
    0.2957              -55.08         0.2089           70.2          47.48          9.971          2.028          9.568          40.23          46.42          124.5          72.61
     0.345              -55.07         0.2138           70.2          47.48           9.97          2.024          9.536          40.22          46.41          124.5          72.61
    0.3943              -55.06         0.2189           70.2          47.48          9.968           2.02          9.502           40.2          46.39          124.5          72.62
    0.4436              -55.05         0.2245           70.2          47.48          9.967          2.016          9.465          40.19          46.37          124.5          72.63
    0.4929              -55.04         0.2304           70.2          47.48          9.966          2.011          9.425          40.18          46.35          124.5          72.64
    0.5421              -55.03         0.2368           70.2          47.48          9.964          2.006          9.383          40.16          46.33          124.5          72.65
    0.5914              -55.02         0.2437           70.2          47.48          9.962          2.001          9.337          40.15           46.3          124.4          72.66
    0.6407              -55.01         0.2512           70.2          47.48          9.961          1.995          9.287          40.13          46.28          124.4          72.67
      0.69               -55.0         0.2592           70.2          47.48          9.959          1.988          9.233          40.11          46.25          124.4          72.69
    0.7393              -54.98          0.268           70.2          47.48          9.957          1.982          9.175          40.09          46.22          124.4           72.7
    0.7886              -54.97         0.2775           70.2          47.48          9.954          1.974          9.112          40.07          46.19          124.3          72.72
    0.8378              -54.95         0.2878           70.2          47.48          9.952          1.966          9.043          40.04          46.15          124.3          72.73
    0.8871              -54.93         0.2991           70.2          47.49          9.949          1.957          8.967          40.02          46.11          124.3          72.75
    0.9364              -54.92         0.3115           70.2          47.49          9.946          1.947          8.885          39.99          46.07          124.2          72.77
    0.9857              -54.89         0.3251          70.19          47.49          9.943          1.937          8.794          39.96          46.02          124.2          72.79
     1.035              -54.87         0.3401          70.19          47.49          9.939          1.925          8.695          39.92          45.97          124.1          72.82
     1.084              -54.84         0.3566          70.19          47.49          9.935          1.912          8.584          39.88          45.91          124.1          72.85
     1.134              -54.81         0.3749          70.19          47.49          9.931          1.897          8.462          39.84          45.85          124.0          72.88
     1.183              -54.78         0.3953          70.19           47.5          9.926          1.881          8.327          39.79          45.78          124.0          72.91
     1.232              -54.75          0.418          70.19           47.5          9.921          1.863          8.175          39.74           45.7          123.9          72.95
     1.281              -54.71         0.4434          70.19           47.5          9.914          1.843          8.006          39.68          45.61          123.8          72.99
     1.331              -54.66         0.4721          70.18          47.51          9.908          1.821          7.815          39.62          45.51          123.7          73.03
      1.38              -54.61         0.5044          70.18          47.51            9.9          1.795          7.599          39.54           45.4          123.6          73.09
     1.429              -54.55         0.5411          70.18          47.51          9.891          1.766          7.355          39.46          45.27          123.5          73.15
     1.479              -54.49          0.583          70.17          47.52          9.881          1.733          7.075          39.36          45.13          123.4          73.21
     1.528              -54.41         0.6311          70.17          47.52          9.869          1.696          6.755          39.25          44.96          123.2          73.29
